<svg width="200" height="200" viewBox="0 0 200 200" fill="none" xmlns="http://www.w3.org/2000/svg">
  <circle cx="100" cy="100" r="90" fill="#2DA44E" />
  <path d="M100 30C61.34 30 30 61.34 30 100C30 131.4 50.9 158 80 165.9V140C80 134.48 84.48 130 90 130H110C115.52 130 120 134.48 120 140V165.9C149.1 158 170 131.4 170 100C170 61.34 138.66 30 100 30Z" fill="#0D1117"/>
  <path d="M65 75C65 69.48 69.48 65 75 65H125C130.52 65 135 69.48 135 75V100C135 105.52 130.52 110 125 110H75C69.48 110 65 105.52 65 100V75Z" fill="white"/>
  <rect x="75" y="80" width="10" height="15" fill="#0D1117"/>
  <rect x="95" y="80" width="10" height="15" fill="#0D1117"/>
  <rect x="115" y="80" width="10" height="15" fill="#0D1117"/>
  <path d="M54.1056 56.4689C55.0424 55.1776 56.6776 54.9126 57.8689 56.0944L67.0944 65.4689C68.2857 66.7601 68.0207 68.3026 66.8294 69.4844L57.6039 78.8589C55.7207 80.6276 53.7944 79.8682 52.9157 78.6351C52.0369 77.402 51.2931 74.7932 53.1763 73.0244L58.6351 67.7776L53.1763 62.5307C51.2931 60.762 52.0369 58.1532 52.9157 56.9201C53.7944 55.687 55.7207 54.9276 57.6039 56.6964" fill="#0D1117"/>
  <path d="M143.531 56.4689C142.594 55.1776 140.959 54.9126 139.768 56.0944L130.543 65.4689C129.351 66.7601 129.616 68.3026 130.808 69.4844L140.033 78.8589C141.916 80.6276 143.843 79.8682 144.721 78.6351C145.6 77.402 146.344 74.7932 144.461 73.0244L139.002 67.7776L144.461 62.5307C146.344 60.762 145.6 58.1532 144.721 56.9201C143.843 55.687 141.916 54.9276 140.033 56.6964" fill="#0D1117"/>
</svg>
