<svg width="120" height="120" viewBox="0 0 120 120" fill="none" xmlns="http://www.w3.org/2000/svg">
  <circle cx="60" cy="60" r="54" fill="#2DA44E" />
  <path d="M60 18C36.8 18 18 36.8 18 60C18 78.84 30.54 94.8 48 99.54V84C48 80.69 50.69 78 54 78H66C69.31 78 72 80.69 72 84V99.54C89.46 94.8 102 78.84 102 60C102 36.8 83.2 18 60 18Z" fill="#0D1117"/>
  <path d="M39 45C39 41.69 41.69 39 45 39H75C78.31 39 81 41.69 81 45V60C81 63.31 78.31 66 75 66H45C41.69 66 39 63.31 39 60V45Z" fill="white"/>
  <rect x="45" y="48" width="6" height="9" fill="#0D1117"/>
  <rect x="57" y="48" width="6" height="9" fill="#0D1117"/>
  <rect x="69" y="48" width="6" height="9" fill="#0D1117"/>
</svg>
