<svg xmlns="http://www.w3.org/2000/svg" viewBox="0 0 512 512" width="512" height="512">
  <!-- Background for maskable icon - extends to edges -->
  <rect width="512" height="512" fill="#2da44e" />
  
  <!-- Center the design in the safe zone (inner 80%) -->
  <g transform="translate(51.2, 51.2) scale(0.8)">
    <!-- Git branch and commit visualization -->
    <g fill="none" stroke="#ffffff" stroke-width="24" stroke-linecap="round" stroke-linejoin="round">
      <!-- Main branch line -->
      <path d="M128,256 L384,256" />
      
      <!-- Branch lines -->
      <path d="M128,128 L128,384" />
      <path d="M256,128 L256,384" />
      <path d="M384,128 L384,384" />
      
      <!-- Commit dots -->
      <circle cx="128" cy="256" r="32" fill="#ffffff" />
      <circle cx="256" cy="256" r="32" fill="#ffffff" />
      <circle cx="384" cy="256" r="32" fill="#ffffff" />
      
      <!-- Branch connections -->
      <path d="M128,128 L256,128" />
      <path d="M256,384 L384,384" />
    </g>
    
    <!-- Subtle code pattern in background -->
    <g fill="#ffffff" opacity="0.1">
      <rect x="96" y="160" width="64" height="8" rx="4" />
      <rect x="96" y="180" width="96" height="8" rx="4" />
      <rect x="96" y="200" width="48" height="8" rx="4" />
      
      <rect x="352" y="304" width="64" height="8" rx="4" />
      <rect x="320" y="324" width="96" height="8" rx="4" />
      <rect x="368" y="344" width="48" height="8" rx="4" />
      
      <rect x="224" y="128" width="64" height="8" rx="4" />
      <rect x="208" y="148" width="96" height="8" rx="4" />
      <rect x="240" y="168" width="48" height="8" rx="4" />
    </g>
  </g>
</svg>

